<?xml version="1.0" encoding="utf-8"?>
<!-- Generator: Adobe Illustrator 19.2.1, SVG Export Plug-In . SVG Version: 6.00 Build 0)  -->
<svg version="1.1" id="layer" xmlns="http://www.w3.org/2000/svg" xmlns:xlink="http://www.w3.org/1999/xlink" x="0px" y="0px"
	 viewBox="0 0 652 652" style="enable-background:new 0 0 652 652;" xml:space="preserve">
<style type="text/css">
	.st0{fill:#001871;}
	.st1{fill:#FEFEFE;}
	.st2{filter:url(#Adobe_OpacityMaskFilter);}
	.st3{fill:#FFFFFF;}
	.st4{mask:url(#b_1_);fill:#FEFEFE;}
	.st5{filter:url(#Adobe_OpacityMaskFilter_1_);}
	.st6{mask:url(#d_1_);fill:#FEFEFE;}
	.st7{filter:url(#Adobe_OpacityMaskFilter_2_);}
	.st8{mask:url(#f_1_);fill:#FEFEFE;}
	.st9{filter:url(#Adobe_OpacityMaskFilter_3_);}
	.st10{mask:url(#h_1_);fill:#FEFEFE;}
	.st11{filter:url(#Adobe_OpacityMaskFilter_4_);}
	.st12{mask:url(#j_1_);fill:#FEFEFE;}
	.st13{filter:url(#Adobe_OpacityMaskFilter_5_);}
	.st14{mask:url(#l_1_);fill:#FEFEFE;}
	.st15{filter:url(#Adobe_OpacityMaskFilter_6_);}
	.st16{mask:url(#n_1_);fill:#FEFEFE;}
	.st17{filter:url(#Adobe_OpacityMaskFilter_7_);}
	.st18{mask:url(#p_1_);fill:#FEFEFE;}
	.st19{filter:url(#Adobe_OpacityMaskFilter_8_);}
	.st20{mask:url(#r_1_);fill:#FEFEFE;}
	.st21{filter:url(#Adobe_OpacityMaskFilter_9_);}
	.st22{mask:url(#t_1_);fill:#FEFEFE;}
	.st23{filter:url(#Adobe_OpacityMaskFilter_10_);}
	.st24{mask:url(#v_1_);fill:#FEFEFE;}
	.st25{filter:url(#Adobe_OpacityMaskFilter_11_);}
	.st26{mask:url(#x_1_);fill:#FEFEFE;}
	.st27{filter:url(#Adobe_OpacityMaskFilter_12_);}
	.st28{mask:url(#z_1_);fill:#FEFEFE;}
	.st29{filter:url(#Adobe_OpacityMaskFilter_13_);}
	.st30{mask:url(#B_1_);fill:#FEFEFE;}
	.st31{filter:url(#Adobe_OpacityMaskFilter_14_);}
	.st32{mask:url(#D_1_);fill:#FEFEFE;}
	.st33{filter:url(#Adobe_OpacityMaskFilter_15_);}
	.st34{mask:url(#F_1_);fill:#FEFEFE;}
	.st35{filter:url(#Adobe_OpacityMaskFilter_16_);}
	.st36{mask:url(#H_1_);fill:#FEFEFE;}
	.st37{filter:url(#Adobe_OpacityMaskFilter_17_);}
	.st38{mask:url(#J_1_);fill:#FEFEFE;}
	.st39{filter:url(#Adobe_OpacityMaskFilter_18_);}
	.st40{mask:url(#L_1_);fill:#FEFEFE;}
	.st41{filter:url(#Adobe_OpacityMaskFilter_19_);}
	.st42{mask:url(#N_1_);fill:#FEFEFE;}
	.st43{filter:url(#Adobe_OpacityMaskFilter_20_);}
	.st44{mask:url(#P_1_);fill:#FEFEFE;}
	.st45{filter:url(#Adobe_OpacityMaskFilter_21_);}
	.st46{mask:url(#R_1_);fill:#FEFEFE;}
	.st47{filter:url(#Adobe_OpacityMaskFilter_22_);}
	.st48{mask:url(#T_1_);fill:#FEFEFE;}
	.st49{filter:url(#Adobe_OpacityMaskFilter_23_);}
	.st50{mask:url(#V_1_);fill:#FEFEFE;}
	.st51{filter:url(#Adobe_OpacityMaskFilter_24_);}
	.st52{mask:url(#X_1_);fill:#FEFEFE;}
	.st53{filter:url(#Adobe_OpacityMaskFilter_25_);}
	.st54{mask:url(#Z_1_);fill:#FEFEFE;}
	.st55{fill:#007CBA;}
</style>
<rect x="20.7" y="238" class="st0" width="600" height="168.4"/>
<g>
	<path class="st1" d="M189.6,359.4h0.7c5,0,8.5-1.7,8.5-6.7c0-4.6-2.8-7.1-7.5-7.1h-1.6C189.6,345.6,189.6,359.4,189.6,359.4z
		 M186,342.6h5.6c5.1,0,10.8,2.7,10.8,9.8c0,7.3-5.6,10-11,10H186L186,342.6L186,342.6z M222.7,362.4h-2.5l-6.1-15.5v15.5h-3.5
		v-19.8h5.3l5.6,14.5l5.7-14.5h5.2v19.8H229V347L222.7,362.4z"/>
	<g transform="translate(-17 -16)">
		<defs>
			<filter id="Adobe_OpacityMaskFilter" filterUnits="userSpaceOnUse" x="258.5" y="358.6" width="3.5" height="19.8">
				<feColorMatrix  type="matrix" values="1 0 0 0 0  0 1 0 0 0  0 0 1 0 0  0 0 0 1 0"/>
			</filter>
		</defs>
		<mask maskUnits="userSpaceOnUse" x="258.5" y="358.6" width="3.5" height="19.8" id="b_1_">
			<g class="st2">
				<path id="a_1_" class="st3" d="M39,413.8h593.8v-150H39V413.8z"/>
			</g>
		</mask>
		<path class="st4" d="M258.5,378.4h3.5v-19.8h-3.5V378.4z"/>
	</g>
	<g transform="translate(-17 -16)">
		<defs>
			<filter id="Adobe_OpacityMaskFilter_1_" filterUnits="userSpaceOnUse" x="271.1" y="358.6" width="16.4" height="19.8">
				<feColorMatrix  type="matrix" values="1 0 0 0 0  0 1 0 0 0  0 0 1 0 0  0 0 0 1 0"/>
			</filter>
		</defs>
		<mask maskUnits="userSpaceOnUse" x="271.1" y="358.6" width="16.4" height="19.8" id="d_1_">
			<g class="st5">
				<path id="c_1_" class="st3" d="M39,413.8h593.8v-150H39V413.8z"/>
			</g>
		</mask>
		<path class="st6" d="M284.4,378.4l-9.8-13.4v13.4h-3.5v-19.8h3.1L284,372v-13.4h3.5v19.8H284.4z"/>
	</g>
	<g transform="translate(-17 -16)">
		<defs>
			<filter id="Adobe_OpacityMaskFilter_2_" filterUnits="userSpaceOnUse" x="296.6" y="358.6" width="3.5" height="19.8">
				<feColorMatrix  type="matrix" values="1 0 0 0 0  0 1 0 0 0  0 0 1 0 0  0 0 0 1 0"/>
			</filter>
		</defs>
		<mask maskUnits="userSpaceOnUse" x="296.6" y="358.6" width="3.5" height="19.8" id="f_1_">
			<g class="st7">
				<path id="e_1_" class="st3" d="M39,413.8h593.8v-150H39V413.8z"/>
			</g>
		</mask>
		<path class="st8" d="M296.6,378.4h3.5v-19.8h-3.5V378.4z"/>
	</g>
	<g transform="translate(-17 -16)">
		<defs>
			<filter id="Adobe_OpacityMaskFilter_3_" filterUnits="userSpaceOnUse" x="307.9" y="358.3" width="14.7" height="20.5">
				<feColorMatrix  type="matrix" values="1 0 0 0 0  0 1 0 0 0  0 0 1 0 0  0 0 0 1 0"/>
			</filter>
		</defs>
		<mask maskUnits="userSpaceOnUse" x="307.9" y="358.3" width="14.7" height="20.5" id="h_1_">
			<g class="st9">
				<path id="g_1_" class="st3" d="M39,413.8h593.8v-150H39V413.8z"/>
			</g>
		</mask>
		<path class="st10" d="M315.7,361.3c-1.6,0-2.9,0.8-2.9,2.3c0,1.6,2,2.2,3.5,2.7c2.9,1,6.2,2.3,6.2,6.3c0,4.4-4,6.1-7.2,6.1
			c-3,0-5.3-1-7.4-3.2l2.4-2.3c1.7,1.7,3,2.4,5.1,2.4c1.8,0,3.5-0.8,3.5-2.9c0-1.9-2-2.6-4.1-3.3c-2.7-1-5.5-2.3-5.5-5.7
			c0-3.8,3-5.5,6.3-5.5c2.5,0,4.5,0.8,6.4,2.2l-2.1,2.5C318.9,362.1,317.3,361.3,315.7,361.3"/>
	</g>
	<g transform="translate(-17 -16)">
		<defs>
			<filter id="Adobe_OpacityMaskFilter_4_" filterUnits="userSpaceOnUse" x="328.6" y="358.6" width="13.1" height="19.8">
				<feColorMatrix  type="matrix" values="1 0 0 0 0  0 1 0 0 0  0 0 1 0 0  0 0 0 1 0"/>
			</filter>
		</defs>
		<mask maskUnits="userSpaceOnUse" x="328.6" y="358.6" width="13.1" height="19.8" id="j_1_">
			<g class="st11">
				<path id="i_1_" class="st3" d="M39,413.8h593.8v-150H39V413.8z"/>
			</g>
		</mask>
		<path class="st12" d="M336.9,361.6v16.8h-3.5v-16.8h-4.8v-3h13.1v3H336.9z"/>
	</g>
	<g transform="translate(-17 -16)">
		<defs>
			<filter id="Adobe_OpacityMaskFilter_5_" filterUnits="userSpaceOnUse" x="348.8" y="358.6" width="14.8" height="19.8">
				<feColorMatrix  type="matrix" values="1 0 0 0 0  0 1 0 0 0  0 0 1 0 0  0 0 0 1 0"/>
			</filter>
		</defs>
		<mask maskUnits="userSpaceOnUse" x="348.8" y="358.6" width="14.8" height="19.8" id="l_1_">
			<g class="st13">
				<path id="k_1_" class="st3" d="M39,413.8h593.8v-150H39V413.8z"/>
			</g>
		</mask>
		<path class="st14" d="M354.2,367.3c2.3,0,4-0.8,4-2.8c0-1.8-1.4-2.9-3.4-2.9h-2.5v5.7H354.2L354.2,367.3z M354.9,358.6
			c3.1,0,7,1.6,7,5.8c0,3.2-2.2,4.9-4.5,5.5l6.1,8.4h-4.4l-5.7-8.1h-1.2v8.1h-3.5v-19.8H354.9L354.9,358.6z"/>
	</g>
	<g transform="translate(-17 -16)">
		<defs>
			<filter id="Adobe_OpacityMaskFilter_6_" filterUnits="userSpaceOnUse" x="391.4" y="358.6" width="13.1" height="19.8">
				<feColorMatrix  type="matrix" values="1 0 0 0 0  0 1 0 0 0  0 0 1 0 0  0 0 0 1 0"/>
			</filter>
		</defs>
		<mask maskUnits="userSpaceOnUse" x="391.4" y="358.6" width="13.1" height="19.8" id="n_1_">
			<g class="st15">
				<path id="m_1_" class="st3" d="M39,413.8h593.8v-150H39V413.8z"/>
			</g>
		</mask>
		<path class="st16" d="M399.7,361.6v16.8h-3.5v-16.8h-4.8v-3h13.1v3H399.7z"/>
	</g>
	<g transform="translate(-17 -16)">
		<defs>
			<filter id="Adobe_OpacityMaskFilter_7_" filterUnits="userSpaceOnUse" x="411.6" y="358.6" width="3.5" height="19.8">
				<feColorMatrix  type="matrix" values="1 0 0 0 0  0 1 0 0 0  0 0 1 0 0  0 0 0 1 0"/>
			</filter>
		</defs>
		<mask maskUnits="userSpaceOnUse" x="411.6" y="358.6" width="3.5" height="19.8" id="p_1_">
			<g class="st17">
				<path id="o_1_" class="st3" d="M39,413.8h593.8v-150H39V413.8z"/>
			</g>
		</mask>
		<path class="st18" d="M411.6,378.4h3.5v-19.8h-3.5V378.4z"/>
	</g>
	<g transform="translate(-17 -16)">
		<defs>
			<filter id="Adobe_OpacityMaskFilter_8_" filterUnits="userSpaceOnUse" x="423.3" y="358.3" width="20.6" height="20.5">
				<feColorMatrix  type="matrix" values="1 0 0 0 0  0 1 0 0 0  0 0 1 0 0  0 0 0 1 0"/>
			</filter>
		</defs>
		<mask maskUnits="userSpaceOnUse" x="423.3" y="358.3" width="20.6" height="20.5" id="r_1_">
			<g class="st19">
				<path id="q_1_" class="st3" d="M39,413.8h593.8v-150H39V413.8z"/>
			</g>
		</mask>
		<path class="st20" d="M433.6,361.3c-3.8,0-6.6,3.1-6.6,7.2c0,4,2.8,7.2,6.6,7.2c3.8,0,6.6-3.1,6.6-7.2
			C440.2,364.5,437.4,361.3,433.6,361.3 M433.6,378.7c-5.8,0-10.3-4.6-10.3-10.2c0-5.7,4.4-10.2,10.3-10.2c5.9,0,10.3,4.6,10.3,10.2
			C443.9,374.2,439.4,378.7,433.6,378.7"/>
	</g>
	<g transform="translate(-17 -16)">
		<defs>
			<filter id="Adobe_OpacityMaskFilter_9_" filterUnits="userSpaceOnUse" x="452" y="358.6" width="16.4" height="19.8">
				<feColorMatrix  type="matrix" values="1 0 0 0 0  0 1 0 0 0  0 0 1 0 0  0 0 0 1 0"/>
			</filter>
		</defs>
		<mask maskUnits="userSpaceOnUse" x="452" y="358.6" width="16.4" height="19.8" id="t_1_">
			<g class="st21">
				<path id="s_1_" class="st3" d="M39,413.8h593.8v-150H39V413.8z"/>
			</g>
		</mask>
		<path class="st22" d="M465.3,378.4l-9.8-13.4v13.4H452v-19.8h3.1L465,372v-13.4h3.5v19.8H465.3z"/>
	</g>
	<g transform="translate(-17 -16)">
		<defs>
			<filter id="Adobe_OpacityMaskFilter_10_" filterUnits="userSpaceOnUse" x="177.6" y="358.6" width="18.3" height="19.8">
				<feColorMatrix  type="matrix" values="1 0 0 0 0  0 1 0 0 0  0 0 1 0 0  0 0 0 1 0"/>
			</filter>
		</defs>
		<mask maskUnits="userSpaceOnUse" x="177.6" y="358.6" width="18.3" height="19.8" id="v_1_">
			<g class="st23">
				<path id="u_1_" class="st3" d="M39,413.8h593.8v-150H39V413.8z"/>
			</g>
		</mask>
		<path class="st24" d="M191.9,378.4h4l-7.5-19.8h-2.9l-7.9,19.8h3.8l1.4-3.9h5.4l-1-2.9h-3.3l2.8-7.6h0L191.9,378.4z"/>
	</g>
	<g transform="translate(-17 -16)">
		<defs>
			<filter id="Adobe_OpacityMaskFilter_11_" filterUnits="userSpaceOnUse" x="369.3" y="358.6" width="18.3" height="19.8">
				<feColorMatrix  type="matrix" values="1 0 0 0 0  0 1 0 0 0  0 0 1 0 0  0 0 0 1 0"/>
			</filter>
		</defs>
		<mask maskUnits="userSpaceOnUse" x="369.3" y="358.6" width="18.3" height="19.8" id="x_1_">
			<g class="st25">
				<path id="w_1_" class="st3" d="M39,413.8h593.8v-150H39V413.8z"/>
			</g>
		</mask>
		<path class="st26" d="M383.6,378.4h4l-7.5-19.8h-2.9l-7.9,19.8h3.8l1.4-3.9h5.4l-1-2.9h-3.3l2.8-7.6h0L383.6,378.4z"/>
	</g>
	<g transform="translate(-17 -16)">
		<defs>
			<filter id="Adobe_OpacityMaskFilter_12_" filterUnits="userSpaceOnUse" x="180.1" y="299.6" width="27.6" height="39.3">
				<feColorMatrix  type="matrix" values="1 0 0 0 0  0 1 0 0 0  0 0 1 0 0  0 0 0 1 0"/>
			</filter>
		</defs>
		<mask maskUnits="userSpaceOnUse" x="180.1" y="299.6" width="27.6" height="39.3" id="z_1_">
			<g class="st27">
				<path id="y_1_" class="st3" d="M39,413.8h593.8v-150H39V413.8z"/>
			</g>
		</mask>
		<path class="st28" d="M193.9,338.8L193.9,338.8c3.9,0,7.2-1.3,9.8-3.9c2.6-2.5,3.9-5.8,4-10v-25.4H200v24.8c0,2.2-0.6,3.8-1.7,4.9
			c-1.1,1.2-2.6,1.7-4.4,1.7c-1.8,0-3.2-0.6-4.3-1.7c-1.1-1.1-1.7-2.7-1.7-4.9v-24.8h-7.7V325c0,4.2,1.4,7.5,4.1,10
			C186.8,337.5,190,338.8,193.9,338.8"/>
	</g>
	<g transform="translate(-17 -16)">
		<defs>
			<filter id="Adobe_OpacityMaskFilter_13_" filterUnits="userSpaceOnUse" x="211.6" y="331" width="7.4" height="7.6">
				<feColorMatrix  type="matrix" values="1 0 0 0 0  0 1 0 0 0  0 0 1 0 0  0 0 0 1 0"/>
			</filter>
		</defs>
		<mask maskUnits="userSpaceOnUse" x="211.6" y="331" width="7.4" height="7.6" id="B_1_">
			<g class="st29">
				<path id="A_1_" class="st3" d="M39,413.8h593.8v-150H39V413.8z"/>
			</g>
		</mask>
		<path class="st30" d="M211.6,338.5h7.4V331h-7.4V338.5z"/>
	</g>
	<g transform="translate(-17 -16)">
		<defs>
			<filter id="Adobe_OpacityMaskFilter_14_" filterUnits="userSpaceOnUse" x="258.4" y="331" width="7.4" height="7.6">
				<feColorMatrix  type="matrix" values="1 0 0 0 0  0 1 0 0 0  0 0 1 0 0  0 0 0 1 0"/>
			</filter>
		</defs>
		<mask maskUnits="userSpaceOnUse" x="258.4" y="331" width="7.4" height="7.6" id="D_1_">
			<g class="st31">
				<path id="C_1_" class="st3" d="M39,413.8h593.8v-150H39V413.8z"/>
			</g>
		</mask>
		<path class="st32" d="M258.4,338.5h7.4V331h-7.4V338.5z"/>
	</g>
	<g transform="translate(-17 -16)">
		<defs>
			<filter id="Adobe_OpacityMaskFilter_15_" filterUnits="userSpaceOnUse" x="287.8" y="299.5" width="25" height="39">
				<feColorMatrix  type="matrix" values="1 0 0 0 0  0 1 0 0 0  0 0 1 0 0  0 0 0 1 0"/>
			</filter>
		</defs>
		<mask maskUnits="userSpaceOnUse" x="287.8" y="299.5" width="25" height="39" id="F_1_">
			<g class="st33">
				<path id="E_1_" class="st3" d="M39,413.8h593.8v-150H39V413.8z"/>
			</g>
		</mask>
		<path class="st34" d="M287.8,338.5h7.7v-15.7H307v-7.3h-11.5V307h17.3v-7.6h-25V338.5z"/>
	</g>
	<g transform="translate(-17 -16)">
		<defs>
			<filter id="Adobe_OpacityMaskFilter_16_" filterUnits="userSpaceOnUse" x="316.5" y="299.2" width="27.7" height="39.6">
				<feColorMatrix  type="matrix" values="1 0 0 0 0  0 1 0 0 0  0 0 1 0 0  0 0 0 1 0"/>
			</filter>
		</defs>
		<mask maskUnits="userSpaceOnUse" x="316.5" y="299.2" width="27.7" height="39.6" id="H_1_">
			<g class="st35">
				<path id="G_1_" class="st3" d="M39,413.8h593.8v-150H39V413.8z"/>
			</g>
		</mask>
		<path class="st36" d="M336.5,319c0,3.5-0.1,5.9-0.3,7.1c-0.2,1.1-0.6,1.9-1.2,2.7c-0.4,0.6-1,1.1-1.8,1.5c-1.5,0.9-3.9,1-5.5,0
			c-0.7-0.4-1.4-0.9-1.9-1.6c-0.6-0.6-0.9-1.5-1.1-2.6c-0.2-1.2-0.4-3.6-0.4-7.1c0-3.5,0.1-5.9,0.4-7.2c0.2-1,0.6-1.8,1.2-2.6
			c0.5-0.6,1.1-1.1,1.9-1.6c0.7-0.4,1.6-0.6,2.7-0.6c1.1,0,2,0.3,2.8,0.6c0.7,0.4,1.3,0.9,1.8,1.6c0.6,0.6,1,1.5,1.2,2.5
			C336.4,313,336.5,315.4,336.5,319 M342.5,306.4c-0.9-1.9-2.4-3.5-4.4-5c-2.1-1.5-4.7-2.2-7.7-2.3c-3,0-5.6,0.8-7.6,2.3
			c-2,1.4-3.6,3.1-4.5,4.9c-0.6,1-1.1,2.3-1.3,3.9c-0.3,1.5-0.4,4.4-0.4,8.8c0,4.3,0.1,7.1,0.4,8.7c0.1,0.8,0.3,1.6,0.6,2.2
			c0.2,0.5,0.5,1.1,0.7,1.7c0.9,1.9,2.5,3.5,4.5,4.9c2,1.5,4.6,2.3,7.6,2.3h0.1c3-0.1,5.6-0.9,7.7-2.3c2-1.4,3.5-3.1,4.3-4.8
			c0.7-1,1.2-2.4,1.4-4c0.2-1.5,0.3-4.4,0.3-8.7c0-4.4-0.1-7.2-0.3-8.7C343.6,308.6,343.1,307.3,342.5,306.4"/>
	</g>
	<g transform="translate(-17 -16)">
		<defs>
			<filter id="Adobe_OpacityMaskFilter_17_" filterUnits="userSpaceOnUse" x="350.3" y="299.2" width="27.7" height="39.6">
				<feColorMatrix  type="matrix" values="1 0 0 0 0  0 1 0 0 0  0 0 1 0 0  0 0 0 1 0"/>
			</filter>
		</defs>
		<mask maskUnits="userSpaceOnUse" x="350.3" y="299.2" width="27.7" height="39.6" id="J_1_">
			<g class="st37">
				<path id="I_1_" class="st3" d="M39,413.8h593.8v-150H39V413.8z"/>
			</g>
		</mask>
		<path class="st38" d="M370.2,319c0,3.5-0.1,5.9-0.3,7.1c-0.2,1.1-0.6,1.9-1.2,2.7c-0.4,0.6-1,1.1-1.8,1.5c-1.5,0.9-3.9,1-5.5,0
			c-0.7-0.4-1.4-0.9-1.9-1.6c-0.6-0.6-0.9-1.5-1.1-2.6c-0.2-1.2-0.4-3.6-0.4-7.1c0-3.5,0.1-5.9,0.4-7.2c0.2-1,0.6-1.8,1.2-2.6
			c0.5-0.6,1.1-1.1,1.9-1.6c0.7-0.4,1.6-0.6,2.7-0.6c1.1,0,2,0.3,2.8,0.6c0.7,0.4,1.3,0.9,1.8,1.6c0.6,0.6,1,1.5,1.2,2.5
			C370.1,313,370.2,315.4,370.2,319 M376.3,306.4c-0.9-1.9-2.4-3.5-4.4-5c-2.1-1.5-4.7-2.2-7.7-2.3c-3,0-5.6,0.8-7.6,2.3
			c-2,1.4-3.6,3.1-4.5,4.9c-0.6,1-1.1,2.3-1.3,3.9c-0.3,1.5-0.4,4.4-0.4,8.8c0,4.3,0.1,7.1,0.4,8.7c0.1,0.8,0.3,1.6,0.6,2.2
			c0.2,0.5,0.5,1.1,0.7,1.7c0.9,1.9,2.5,3.5,4.5,4.9c2,1.5,4.6,2.3,7.6,2.3h0.1c3-0.1,5.6-0.9,7.7-2.3c2-1.4,3.5-3.1,4.3-4.8
			c0.7-1,1.2-2.4,1.4-4c0.2-1.5,0.3-4.4,0.3-8.7c0-4.4-0.1-7.2-0.3-8.7C377.4,308.6,376.9,307.3,376.3,306.4"/>
	</g>
	<g transform="translate(-17 -16)">
		<defs>
			<filter id="Adobe_OpacityMaskFilter_18_" filterUnits="userSpaceOnUse" x="385.2" y="299.5" width="27.5" height="39">
				<feColorMatrix  type="matrix" values="1 0 0 0 0  0 1 0 0 0  0 0 1 0 0  0 0 0 1 0"/>
			</filter>
		</defs>
		<mask maskUnits="userSpaceOnUse" x="385.2" y="299.5" width="27.5" height="39" id="L_1_">
			<g class="st39">
				<path id="K_1_" class="st3" d="M39,413.8h593.8v-150H39V413.8z"/>
			</g>
		</mask>
		<path class="st40" d="M392.9,307l5.5,0c2.2,0,3.9,0.8,5.2,2.7c0.6,0.7,1,1.6,1.1,2.7c0.1,1.3,0.2,3.6,0.2,6.7
			c0,3.2-0.1,5.4-0.2,6.5c-0.1,1-0.4,1.8-1,2.5c-1.1,1.8-3,2.7-5.6,2.7h-5.3V307z M410.6,306.2c-2.6-4.4-6.6-6.7-11.8-6.8h-13.6v39
			h13.2c2.9,0,5.4-0.7,7.3-2c2-1.2,3.6-2.8,4.7-4.7c0.4-0.7,0.8-1.4,1.1-2c0.3-0.7,0.5-1.5,0.7-2.4c0.3-1.6,0.4-4.4,0.4-8.4
			c0-3.8-0.1-6.4-0.3-8C412.1,309.3,411.5,307.7,410.6,306.2L410.6,306.2z"/>
	</g>
	<g transform="translate(-17 -16)">
		<defs>
			<filter id="Adobe_OpacityMaskFilter_19_" filterUnits="userSpaceOnUse" x="488.7" y="299.5" width="27.5" height="39">
				<feColorMatrix  type="matrix" values="1 0 0 0 0  0 1 0 0 0  0 0 1 0 0  0 0 0 1 0"/>
			</filter>
		</defs>
		<mask maskUnits="userSpaceOnUse" x="488.7" y="299.5" width="27.5" height="39" id="N_1_">
			<g class="st41">
				<path id="M_1_" class="st3" d="M39,413.8h593.8v-150H39V413.8z"/>
			</g>
		</mask>
		<path class="st42" d="M496.4,307l5.5,0c2.2,0,3.9,0.8,5.2,2.7c0.6,0.7,1,1.6,1.1,2.7c0.1,1.3,0.2,3.6,0.2,6.7
			c0,3.2-0.1,5.4-0.2,6.5c-0.1,1-0.4,1.8-1,2.5c-1.1,1.8-3,2.7-5.6,2.7h-5.3L496.4,307L496.4,307z M514.1,306.2
			c-2.6-4.4-6.6-6.7-11.8-6.8h-13.6v39h13.2c2.9,0,5.4-0.7,7.3-2c2-1.2,3.6-2.8,4.7-4.7c0.4-0.7,0.8-1.4,1.1-2
			c0.3-0.7,0.5-1.5,0.7-2.4c0.3-1.6,0.4-4.4,0.4-8.4c0-3.8-0.1-6.4-0.3-8C515.6,309.3,515,307.7,514.1,306.2L514.1,306.2z"/>
	</g>
	<g transform="translate(-17 -16)">
		<defs>
			<filter id="Adobe_OpacityMaskFilter_20_" filterUnits="userSpaceOnUse" x="523.4" y="299.5" width="29.1" height="39">
				<feColorMatrix  type="matrix" values="1 0 0 0 0  0 1 0 0 0  0 0 1 0 0  0 0 0 1 0"/>
			</filter>
		</defs>
		<mask maskUnits="userSpaceOnUse" x="523.4" y="299.5" width="29.1" height="39" id="P_1_">
			<g class="st43">
				<path id="O_1_" class="st3" d="M39,413.8h593.8v-150H39V413.8z"/>
			</g>
		</mask>
		<path class="st44" d="M531.1,306.7h7.3c1.4,0,2.5,0.3,3.3,0.9c0.9,0.6,1.3,1.7,1.3,3.2c0,1.3-0.4,2.4-1.2,3.3
			c-0.8,0.9-2,1.4-3.6,1.4h-7V306.7z M550.4,310.8c-0.1-3.7-1.4-6.6-3.9-8.7c-2.1-1.8-4.8-2.7-8-2.7h-15v39h7.7v-15.7h5l7.3,15.7h9
			l-8.5-16.9C548.2,319.5,550.3,315.9,550.4,310.8z"/>
	</g>
	<g transform="translate(-17 -16)">
		<defs>
			<filter id="Adobe_OpacityMaskFilter_21_" filterUnits="userSpaceOnUse" x="556.5" y="299.5" width="27.6" height="39.3">
				<feColorMatrix  type="matrix" values="1 0 0 0 0  0 1 0 0 0  0 0 1 0 0  0 0 0 1 0"/>
			</filter>
		</defs>
		<mask maskUnits="userSpaceOnUse" x="556.5" y="299.5" width="27.6" height="39.3" id="R_1_">
			<g class="st45">
				<path id="Q_1_" class="st3" d="M39,413.8h593.8v-150H39V413.8z"/>
			</g>
		</mask>
		<path class="st46" d="M576.4,324.3c0,2.2-0.6,3.8-1.7,4.9c-1.2,1.2-2.6,1.7-4.4,1.7c-1.8,0-3.2-0.6-4.3-1.7
			c-1.1-1.1-1.7-2.7-1.7-4.9v-24.8h-7.7v25.4c0,4.2,1.4,7.5,4.1,10c2.6,2.5,5.9,3.8,9.7,3.9h0c3.9,0,7.2-1.3,9.8-3.9
			c2.6-2.5,3.9-5.8,4-10v-25.4h-7.7L576.4,324.3L576.4,324.3z"/>
	</g>
	<g transform="translate(-17 -16)">
		<defs>
			<filter id="Adobe_OpacityMaskFilter_22_" filterUnits="userSpaceOnUse" x="433.1" y="299.1" width="35" height="39.9">
				<feColorMatrix  type="matrix" values="1 0 0 0 0  0 1 0 0 0  0 0 1 0 0  0 0 0 1 0"/>
			</filter>
		</defs>
		<mask maskUnits="userSpaceOnUse" x="433.1" y="299.1" width="35" height="39.9" id="T_1_">
			<g class="st47">
				<path id="S_1_" class="st3" d="M39,413.8h593.8v-150H39V413.8z"/>
			</g>
		</mask>
		<path class="st48" d="M446.1,312.8c1-0.7,2.1-1.3,3-2.2c0.8-0.8,1.1-1.8,0.9-3c-0.5-2.3-3.3-3.3-5.2-1.9c-1.1,0.8-1.6,2.5-1,3.9
			C444.3,310.9,445.3,311.8,446.1,312.8 M451.9,330.2l-7.8-9.2c-0.9,0.7-1.8,1.4-2.5,2.2c-1,1.1-1.4,2.3-1.4,3.8
			c0,2.5,1.5,4.5,3.9,5.2c2,0.6,4,0.4,5.8-0.5C450.6,331.2,451.3,330.7,451.9,330.2 M449.9,317.2l6.6,7.8c0.7-1,1.2-2.1,1.5-3.3
			c0.3-1.2,0.4-2.4,0.5-3.6h6.8c-0.1,0.7-0.1,1.5-0.2,2.2c-0.2,1.7-0.5,3.4-1.1,5c-0.6,1.7-1.5,3.3-2.7,4.7
			c-0.1,0.1-0.1,0.1-0.2,0.2l7,8.2c-0.1,0.1-0.2,0.1-0.3,0.1c-2.8,0-5.6,0-8.5,0c-0.2,0-0.4-0.1-0.5-0.2c-0.8-1-1.7-2-2.5-3
			c-0.1-0.1-0.1-0.1-0.1-0.2c-0.6,0.5-1.2,0.9-1.8,1.3c-1.8,1.3-3.9,2-6.1,2.3c-2.4,0.3-4.9,0.2-7.3-0.5c-4.4-1.2-6.9-4.1-7.7-8.6
			c-0.3-1.6-0.4-3.3,0-4.9c0.4-1.8,1.3-3.4,2.5-4.8c1.1-1.3,2.5-2.4,3.9-3.4c0.1-0.1,0.2-0.1,0.3-0.2c-0.3-0.4-0.7-0.8-1-1.2
			c-1.2-1.5-2.2-3.1-2.6-5c-0.9-4.2,0.8-8.5,5.3-10.3c2.2-0.9,4.5-1.1,6.8-0.7c2,0.3,3.8,1,5.3,2.4c1.3,1.2,2.1,2.6,2.5,4.3
			c0.4,1.8,0.5,3.6-0.2,5.3c-0.5,1.1-1.2,2-2.1,2.8c-1.1,1.1-2.5,1.9-3.8,2.9C450.3,317,450.1,317.1,449.9,317.2"/>
	</g>
	<g transform="translate(-17 -16)">
		<defs>
			<filter id="Adobe_OpacityMaskFilter_23_" filterUnits="userSpaceOnUse" x="590.7" y="299.2" width="27.7" height="39.6">
				<feColorMatrix  type="matrix" values="1 0 0 0 0  0 1 0 0 0  0 0 1 0 0  0 0 0 1 0"/>
			</filter>
		</defs>
		<mask maskUnits="userSpaceOnUse" x="590.7" y="299.2" width="27.7" height="39.6" id="V_1_">
			<g class="st49">
				<path id="U_1_" class="st3" d="M39,413.8h593.8v-150H39V413.8z"/>
			</g>
		</mask>
		<path class="st50" d="M604.6,316v7.6h6.1v0.7c0,2-0.6,3.6-1.8,4.8c-1.1,1.2-2.6,1.8-4.3,1.8c-1,0-1.9-0.2-2.7-0.7
			c-0.7-0.4-1.4-0.9-1.9-1.6c-0.6-0.6-0.9-1.5-1.1-2.6c-0.2-1.2-0.4-3.6-0.4-7.1c0-3.5,0.1-5.9,0.4-7.2c0.2-1,0.6-1.8,1.2-2.6
			c0.5-0.6,1.1-1.1,1.9-1.6c0.7-0.4,1.7-0.6,2.7-0.6c1.5,0,2.7,0.4,3.6,1.2c1,0.9,1.7,2,2.1,3.3l0.2,0.8h8l-0.3-1.4
			c-0.6-3.3-2.1-6.1-4.4-8.3c-2.4-2.3-5.5-3.4-9.2-3.5c-3,0-5.6,0.8-7.6,2.3c-2,1.4-3.6,3.1-4.5,4.9c-0.6,1-1.1,2.3-1.3,3.9
			c-0.3,1.5-0.4,4.4-0.4,8.7c0,4.3,0.1,7.1,0.4,8.7c0.1,0.9,0.3,1.6,0.6,2.2c0.2,0.5,0.5,1.1,0.7,1.7c0.9,1.9,2.5,3.5,4.5,4.9
			c2,1.5,4.6,2.3,7.6,2.3h0c2.5,0,4.8-0.6,6.7-1.8v1.5h7.1V316H604.6z"/>
	</g>
	<g transform="translate(-17 -16)">
		<defs>
			<filter id="Adobe_OpacityMaskFilter_24_" filterUnits="userSpaceOnUse" x="225.9" y="299.4" width="29.2" height="39.6">
				<feColorMatrix  type="matrix" values="1 0 0 0 0  0 1 0 0 0  0 0 1 0 0  0 0 0 1 0"/>
			</filter>
		</defs>
		<mask maskUnits="userSpaceOnUse" x="225.9" y="299.4" width="29.2" height="39.6" id="X_1_">
			<g class="st51">
				<path id="W_1_" class="st3" d="M39,413.8h593.8v-150H39V413.8z"/>
			</g>
		</mask>
		<path class="st52" d="M241.5,306.1c-2.6,0-5,1.3-5,3.8c0,3,3.6,3.8,6.6,4.8c5.4,1.9,11.9,4.4,11.9,12.4c0,8.3-7.8,11.9-14.5,11.9
			c-5.9,0-10.5-2.2-14.7-6.4l5.2-5.1c3.1,3,5.5,4.8,9.5,4.8c3.1,0,6.1-1.5,6.1-4.9c0-3.3-3.5-4.5-7.4-6c-5-1.9-10.6-4-10.6-11.4
			c0-7.3,6.2-10.7,12.5-10.7c4.9,0,8.8,1.6,12.7,4.5l-4.5,5.6C247.3,307.7,244.5,306.1,241.5,306.1"/>
	</g>
	<g transform="translate(-17 -16)">
		<defs>
			<filter id="Adobe_OpacityMaskFilter_25_" filterUnits="userSpaceOnUse" x="56.7" y="280.5" width="97.8" height="117.1">
				<feColorMatrix  type="matrix" values="1 0 0 0 0  0 1 0 0 0  0 0 1 0 0  0 0 0 1 0"/>
			</filter>
		</defs>
		<mask maskUnits="userSpaceOnUse" x="56.7" y="280.5" width="97.8" height="117.1" id="Z_1_">
			<g class="st53">
				<path id="Y_1_" class="st3" d="M632.9,413.8v-150H39v150H632.9z"/>
			</g>
		</mask>
		<path class="st54" d="M56.7,397.6h97.8V280.5H56.7V397.6z"/>
	</g>
	<path class="st55" d="M121.9,319.8l-8.3-24.8l-4,11.7h4.5l1.6,5.6h-7.9l-2.6,7.5H98l12.2-32.6h6.5l12.2,32.6H121.9z M89.3,318.8
		c-2.1,0.7-4.5,1.1-7.1,1.1h-11v-19.2h6.8V314h4.4c1.8,0,3.3-0.3,4.5-0.8c1.2-0.5,2.3-1.2,3-2.2c0.8-0.9,1.3-2.1,1.7-3.4
		c0.4-1.3,0.5-2.7,0.5-4.4c0-1.6-0.2-3-0.5-4.3c-0.3-1.3-0.8-2.4-1.5-3.3c-0.7-0.9-1.6-1.6-2.7-2.1c-1-0.4-2.2-0.6-3.5-0.7H56.3v7.5
		h9.2v5.8h-9.2v13.4h-6.8v-32.6h35c4.4,0.2,7.9,1.6,10.4,4.1c2.8,2.7,4.2,6.7,4.2,12.1c0,2.7-0.4,5.1-1.2,7.1
		c-0.8,2-1.9,3.8-3.4,5.2C93.2,317,91.4,318.1,89.3,318.8L89.3,318.8z"/>
</g>
</svg>
